#!OML:ASF H:\Not Pregnant\Project 1\Capture day 1\Session 1\non-pregnant.ASF
:FULLY-SPECIFIED
:DEGREES
1041
root 5.20437 20.2087 10.8535 -170.766 187.522 -175.93
lowerback 2.33619 0.649713 0.280324
upperback -7.08902 0.701752 -2.42709
thorax -8.73146 0.2211 -2.79135
lowerneck 11.7955 -9.44856 -31.3365
upperneck 2.51503 -18.5913 36.663
head 5.8384 -10.5141 17.9382
rclavicle 6.55368e-015 -8.44835e-015
rhumerus -38.8156 -16.0312 -77.8645
rradius 27.7846
rwrist 23.438
rhand -10.7012 -3.07304
rfingers 7.12502
rthumb 15.3083 -32.4865
lclavicle 6.55368e-015 -8.44835e-015
lhumerus -38.0766 -4.7 85.1931
lradius 37.4791
lwrist 34.213
lhand -16.0271 -12.6677
lfingers 7.12502
lthumb 10.174 17.0663
rfemur -55.929 -5.92325 19.3644
rtibia 108.696
rfoot 9.46153 -0.364598
rtoes -8.0079
lfemur -24.3523 5.10522 -31.398
ltibia 36.9469
lfoot -18.3602 -8.79028
ltoes -7.57939
1042
root 5.19771 20.202 10.9289 -170.898 187.291 -175.945
lowerback 2.55971 0.574546 0.194109
upperback -7.03032 0.596475 -2.38721
thorax -8.80553 0.176646 -2.69333
lowerneck 11.8186 -9.45881 -31.3662
upperneck 2.56883 -18.6269 36.6374
head 5.86328 -10.5335 17.9278
rclavicle -2.39784e-015 -3.67752e-015
rhumerus -38.7068 -15.8258 -77.9355
rradius 27.9556
rwrist 23.0783
rhand -10.6148 -3.06068
rfingers 7.12502
rthumb 15.3915 -32.4677
lclavicle -2.39784e-015 -3.67752e-015
lhumerus -37.8225 -4.62826 85.3066
lradius 37.7357
lwrist 34.5032
lhand -16.0492 -12.6271
lfingers 7.12502
lthumb 10.1527 17.1079
rfemur -57.1473 -5.43929 19.6163
rtibia 108.428
rfoot 8.62793 -0.25249
rtoes -8.64341
lfemur -23.9059 5.14681 -31.3605
ltibia 36.9916
lfoot -18.5675 -8.87448
ltoes -7.62306
1043
root 5.19015 20.1921 11.0038 -171.05 187.077 -175.968
lowerback 2.80835 0.510927 0.0925205
upperback -6.96819 0.50535 -2.3438
thorax -8.88983 0.140385 -2.58416
lowerneck 11.8587 -9.47071 -31.3897
upperneck 2.60078 -18.6658 36.6284
head 5.88199 -10.5568 17.9248
rclavicle -5.96354e-015 8.64713e-015
rhumerus -38.5867 -15.6373 -77.9869
rradius 28.0813
rwrist 22.8206
rhand -10.5002 -3.01778
rfingers 7.12502
rthumb 15.502 -32.4163
lclavicle -5.96354e-015 8.64713e-015
lhumerus -37.58 -4.56456 85.435
lradius 38.0031
lwrist 34.8072
lhand -16.0584 -12.6016
lfingers 7.12502
lthumb 10.1438 17.1338
rfemur -58.2442 -4.87247 19.8181
rtibia 107.935
rfoot 7.86358 0.00440145
rtoes -9.05909
lfemur -23.4747 5.19063 -31.3093
ltibia 37.1085
lfoot -18.8085 -8.91599
ltoes -7.76199
1044
root 5.18158 20.1789 11.0783 -171.224 186.877 -175.995
lowerback 3.07639 0.457329 -0.0280302
upperback -6.89727 0.426007 -2.29733
thorax -8.97521 0.111519 -2.46188
lowerneck 11.9158 -9.48342 -31.4078
upperneck 2.60319 -18.7051 36.6386
head 5.89174 -10.5826 17.9308
rclavicle -1.57164e-015 -5.06901e-015
rhumerus -38.4507 -15.4761 -78.0164
rradius 28.1593
rwrist 22.683
rhand -10.3611 -2.96247
rfingers 7.12502
rthumb 15.6359 -32.3506
lclavicle -1.57164e-015 -5.06901e-015
lhumerus -37.3413 -4.51357 85.5795
lradius 38.2766
lwrist 35.1129
lhand -16.0625 -12.587
lfingers 7.12502
lthumb 10.1398 17.1487
rfemur -59.2182 -4.24262 19.9694
rtibia 107.225
rfoot 7.14017 0.373863
rtoes -9.39667
lfemur -23.0553 5.23692 -31.2471
ltibia 37.2919
lfoot -19.0782 -8.92251
ltoes -7.95334
1045
root 5.17203 20.1627 11.1525 -171.418 186.685 -176.026
lowerback 3.3594 0.410161 -0.1681
upperback -6.81713 0.353516 -2.24666
thorax -9.05886 0.0877282 -2.32442
lowerneck 11.9913 -9.49469 -31.4227
upperneck 2.57232 -18.7417 36.6695
head 5.89035 -10.6096 17.948
rclavicle 4.5472e-015 -1.66979e-014
rhumerus -38.2937 -15.3627 -78.0141
rradius 28.1709
rwrist 22.6728
rhand -10.2195 -2.88818
rfingers 7.12502
rthumb 15.7723 -32.2656
lclavicle 4.5472e-015 -1.66979e-014
lhumerus -37.1217 -4.46545 85.7395
lradius 38.5691
lwrist 35.4003
lhand -16.0579 -12.5969
lfingers 7.12502
lthumb 10.1443 17.1386
rfemur -60.0594 -3.57723 20.0715
rtibia 106.3
rfoot 6.4678 0.826957
rtoes -9.60703
lfemur -22.6425 5.27872 -31.1755
ltibia 37.5341
lfoot -19.374 -8.89801
ltoes -8.18791
1046
root 5.16163 20.1445 11.2269 -171.63 186.491 -176.061
lowerback 3.66338 0.36684 -0.322984
upperback -6.73551 0.284533 -2.189
thorax -9.15296 0.0670168 -2.17137
lowerneck 12.0861 -9.50359 -31.4398
upperneck 2.51247 -18.7755 36.7173
head 5.87901 -10.6379 17.9755
rclavicle 2.20527e-015 2.87244e-014
rhumerus -38.143 -15.2684 -77.9843
rradius 28.1515
rwrist 22.7713
rhand -10.0683 -2.80895
rfingers 7.12502
rthumb 15.9179 -32.1748
lclavicle 2.20527e-015 2.87244e-014
lhumerus -36.9319 -4.41815 85.9174
lradius 38.8795
lwrist 35.6611
lhand -16.0428 -12.625
lfingers 7.12502
lthumb 10.1588 17.1098
rfemur -60.759 -2.89338 20.132
rtibia 105.158
rfoot 5.85794 1.3283
rtoes -9.84957
lfemur -22.2315 5.3165 -31.0923
ltibia 37.8216
lfoot -19.6834 -8.86422
ltoes -8.38728
1047
root 5.15079 20.1244 11.3012 -171.85 186.294 -176.107
lowerback 3.96985 0.326454 -0.480705
upperback -6.64629 0.218948 -2.12632
thorax -9.23974 0.0485751 -2.01113
lowerneck 12.1909 -9.51615 -31.4523
upperneck 2.42182 -18.811 36.7776
head 5.8592 -10.6684 18.0076
rclavicle -2.49102e-015 2.75317e-014
rhumerus -37.9828 -15.1978 -77.9372
rradius 28.1022
rwrist 22.9504
rhand -9.93283 -2.7237
rfingers 7.12502
rthumb 16.0483 -32.0791
lclavicle -2.49102e-015 2.75317e-014
lhumerus -36.7708 -4.36778 86.1087
lradius 39.2276
lwrist 35.889
lhand -16.0164 -12.6565
lfingers 7.12502
lthumb 10.1843 17.077
rfemur -61.3237 -2.20813 20.161
rtibia 103.803
rfoot 5.33016 1.8332
rtoes -10.0756
lfemur -21.824 5.35182 -30.9967
ltibia 38.1388
lfoot -20.0014 -8.82113
ltoes -8.57394
1048
root 5.13947 20.1037 11.3768 -172.077 186.079 -176.167
lowerback 4.26273 0.284172 -0.630848
upperback -6.54325 0.151695 -2.05757
thorax -9.30287 0.0292982 -1.84755
lowerneck 12.2995 -9.53155 -31.4612
upperneck 2.29158 -18.8443 36.8598
head 5.82972 -10.6992 18.0493
rclavicle 9.54788e-015 5.06901e-015
rhumerus -37.7989 -15.1676 -77.87
rradius 28.0133
rwrist 23.2193
rhand -9.79497 -2.66196
rfingers 7.12502
rthumb 16.1811 -32.0066
lclavicle 9.54788e-015 5.06901e-015
lhumerus -36.6252 -4.34072 86.3191
lradius 39.6008
lwrist 36.1089
lhand -15.9942 -12.6957
lfingers 7.12502
lthumb 10.2057 17.0367
rfemur -61.7302 -1.55025 20.1735
rtibia 102.226
rfoot 4.88259 2.29246
rtoes -10.3748
lfemur -21.4051 5.37904 -30.8813
ltibia 38.4687
lfoot -20.3309 -8.76694
ltoes -8.79059
1049
root 5.12845 20.0831 11.4538 -172.302 185.842 -176.24
lowerback 4.5343 0.237017 -0.765079
upperback -6.43633 0.0794762 -1.98424
thorax -9.34871 0.00676888 -1.68659
lowerneck 12.4215 -9.54772 -31.4677
upperneck 2.13437 -18.8762 36.949
head 5.79048 -10.7309 18.0945
rclavicle -3.21161e-015 3.08116e-015
rhumerus -37.6173 -15.1409 -77.7954
rradius 27.9135
rwrist 23.515
rhand -9.68002 -2.61673
rfingers 7.12502
rthumb 16.2918 -31.9523
lclavicle -3.21161e-015 3.08116e-015
lhumerus -36.5185 -4.32875 86.5461
lradius 40.0104
lwrist 36.3115
lhand -15.968 -12.7344
lfingers 7.12502
lthumb 10.231 16.9968
rfemur -61.9808 -0.946846 20.1683
rtibia 100.427
rfoot 4.53986 2.67378
rtoes -10.7334
lfemur -20.9751 5.39365 -30.7551
ltibia 38.8009
lfoot -20.6709 -8.6924
ltoes -9.06248
1050
root 5.11723 20.0632 11.5329 -172.518 185.575 -176.346
lowerback 4.76339 0.184717 -0.862415
upperback -6.3132 0.00508752 -1.9034
thorax -9.35089 -0.0189392 -1.53694
lowerneck 12.5465 -9.564 -31.472
upperneck 1.93424 -18.9013 37.065
head 5.74002 -10.7609 18.1534
rclavicle -1.2424e-015 -3.85642e-014
rhumerus -37.4076 -15.165 -77.7052
rradius 27.7783
rwrist 23.8519
rhand -9.5851 -2.60615
rfingers 7.12502
rthumb 16.3832 -31.9342
lclavicle -1.2424e-015 -3.85642e-014
lhumerus -36.4272 -4.34613 86.7897
lradius 40.4447
lwrist 36.5048
lhand -15.949 -12.7862
lfingers 7.12502
lthumb 10.2494 16.9441
rfemur -62.0677 -0.407764 20.1826
rtibia 98.4023
rfoot 4.29976 2.93867
rtoes -11.2354
lfemur -20.5342 5.39519 -30.5927
ltibia 39.1275
lfoot -21.0238 -8.59616
ltoes -9.40395
1051
root 5.10564 20.044 11.6138 -172.718 185.281 -176.485
lowerback 4.95514 0.127117 -0.925726
upperback -6.18482 -0.0719341 -1.81431
thorax -9.32467 -0.047992 -1.39658
lowerneck 12.6793 -9.57642 -31.4726
upperneck 1.70086 -18.9162 37.2021
head 5.67782 -10.7878 18.2248
rclavicle 8.34274e-015 -2.66371e-014
rhumerus -37.1935 -15.197 -77.6169
rradius 27.6382
rwrist 24.168
rhand -9.50005 -2.6505
rfingers 7.12502
rthumb 16.465 -31.9718
lclavicle 8.34274e-015 -2.66371e-014
lhumerus -36.3727 -4.39869 87.049
lradius 40.9131
lwrist 36.697
lhand -15.9356 -12.8518
lfingers 7.12502
lthumb 10.2622 16.8779
rfemur -62.0036 0.0653994 20.2267
rtibia 96.16
rfoot 4.18471 3.08088
rtoes -11.8647
lfemur -20.0971 5.38483 -30.3926
ltibia 39.4489
lfoot -21.3857 -8.4833
ltoes -9.75793
1052
root 5.09356 20.0255 11.6963 -172.896 184.964 -176.661
lowerback 5.1078 0.0647332 -0.953369
upperback -6.05367 -0.150535 -1.71649
thorax -9.27179 -0.0800092 -1.26625
lowerneck 12.8186 -9.58488 -31.4674
upperneck 1.43875 -18.9204 37.3561
head 5.60431 -10.811 18.3064
rclavicle 3.29858e-015 1.17283e-014
rhumerus -36.9845 -15.2354 -77.5319
rradius 27.5087
rwrist 24.4545
rhand -9.41137 -2.75765
rfingers 7.12502
rthumb 16.5504 -32.0719
lclavicle 3.29858e-015 1.17283e-014
lhumerus -36.3477 -4.4855 87.3187
lradius 41.4069
lwrist 36.8899
lhand -15.9254 -12.9286
lfingers 7.12502
lthumb 10.2721 16.8006
rfemur -61.7973 0.4744 20.3085
rtibia 93.7092
rfoot 4.21499 3.11904
rtoes -12.5811
lfemur -19.6722 5.36457 -30.1504
ltibia 39.7664
lfoot -21.7562 -8.36391
ltoes -10.092
1053
root 5.08111 20.0074 11.7803 -173.051 184.627 -176.863
lowerback 5.21752 -0.00211662 -0.95558
upperback -5.9193 -0.231374 -1.61321
thorax -9.18968 -0.114757 -1.14381
lowerneck 12.9602 -9.58768 -31.4579
upperneck 1.15516 -18.9124 37.5284
head 5.52218 -10.8297 18.3999
rclavicle 7.87684e-015 8.74653e-015
rhumerus -36.7755 -15.3078 -77.4395
rradius 27.3691
rwrist 24.717
rhand -9.34795 -2.88074
rfingers 7.12502
rthumb 16.6115 -32.1898
lclavicle 7.87684e-015 8.74653e-015
lhumerus -36.3626 -4.60048 87.5974
lradius 41.9372
lwrist 37.0836
lhand -15.9243 -13.0101
lfingers 7.12502
lthumb 10.2731 16.719
rfemur -61.4582 0.822276 20.4146
rtibia 91.0663
rfoot 4.39575 3.09681
rtoes -13.311
lfemur -19.2645 5.33482 -29.8785
ltibia 40.0825
lfoot -22.1335 -8.25635
ltoes -10.331
1054
root 5.06845 19.9892 11.8659 -173.188 184.271 -177.074
lowerback 5.29944 -0.0735292 -0.946089
upperback -5.78776 -0.316613 -1.50744
thorax -9.09409 -0.152504 -1.02475
lowerneck 13.1023 -9.58796 -31.4443
upperneck 0.861823 -18.8976 37.707
head 5.43541 -10.8457 18.4979
rclavicle -6.02566e-015 -4.57205e-015
rhumerus -36.5868 -15.3934 -77.3399
rradius 27.2409
rwrist 24.9413
rhand -9.29465 -3.00759
rfingers 7.12502
rthumb 16.6628 -32.3124
lclavicle -6.02566e-015 -4.57205e-015
lhumerus -36.4211 -4.74624 87.8877
lradius 42.4947
lwrist 37.2823
lhand -15.9231 -13.0915
lfingers 7.12502
lthumb 10.2744 16.6376
rfemur -60.9867 1.11463 20.5226
rtibia 88.2463
rfoot 4.7486 3.07286
rtoes -14.0143
lfemur -18.8665 5.29364 -29.5923
ltibia 40.3921
lfoot -22.5127 -8.17627
ltoes -10.443
